<svg xmlns="http://www.w3.org/2000/svg" xmlns:xlink="http://www.w3.org/1999/xlink" width="500" zoomAndPan="magnify" viewBox="0 0 375 374.999991" height="500" preserveAspectRatio="xMidYMid meet" version="1.0"><defs><g/><clipPath id="1a59f1edf5"><path d="M 113 111 L 262.5 111 L 262.5 242 L 113 242 Z M 113 111 " clip-rule="nonzero"/></clipPath></defs><g clip-path="url(#1a59f1edf5)"><path fill="#ff914d" d="M 164.367188 194.242188 C 161.300781 195.308594 158.402344 196.441406 155.40625 197.410156 C 145.976562 200.40625 136.449219 202.570312 126.457031 200.804688 C 123.726562 200.375 121.0625 199.441406 118.664062 198.042969 C 114.03125 195.242188 112.5 191.347656 113.832031 186.082031 C 114.863281 181.917969 117.730469 179.152344 120.894531 176.65625 C 128.621094 170.527344 137.582031 166.863281 146.878906 163.964844 C 149.042969 163.296875 151.207031 162.699219 153.539062 162.03125 C 152.140625 160.300781 150.808594 158.699219 149.542969 157.070312 C 145.609375 152.070312 142.414062 146.542969 140.015625 140.644531 C 138.449219 136.714844 137.382812 132.652344 137.417969 128.386719 C 137.484375 124.023438 138.75 120.058594 141.8125 116.828125 C 143.378906 115.164062 145.476562 114.628906 147.675781 114.332031 C 152.472656 113.699219 157.203125 113.832031 161.832031 115.429688 C 165.863281 116.796875 169.460938 119.128906 172.359375 122.226562 C 173.292969 123.191406 173.757812 124.625 174.492188 125.921875 L 174.890625 125.757812 C 175.058594 126.890625 175.226562 127.953125 176.691406 128.121094 C 177.15625 128.1875 177.890625 130.71875 177.757812 131.121094 L 179.753906 132.851562 C 181.253906 130.851562 182.652344 128.789062 184.285156 126.921875 C 189.28125 121.226562 195.609375 117.363281 202.539062 114.597656 C 214.832031 109.734375 226.855469 110.699219 238.484375 116.863281 C 240.347656 117.863281 242.011719 119.261719 243.613281 120.660156 C 245.476562 122.292969 245.976562 124.492188 245.511719 126.890625 C 244.910156 130.121094 243.480469 133.152344 241.3125 135.648438 C 236.71875 140.945312 231.652344 145.777344 225.65625 149.539062 C 220.960938 152.472656 216.164062 155.203125 211.402344 158.035156 C 211.199219 158.203125 211 158.367188 210.800781 158.535156 C 212.800781 158.902344 214.597656 159.234375 216.429688 159.535156 C 225.859375 161.03125 234.75 164.128906 243.246094 168.359375 C 246.710938 170.058594 250.207031 171.691406 253.539062 173.625 C 255.539062 174.757812 257.304688 176.324219 259.003906 177.886719 C 260.933594 179.6875 261.898438 182.085938 262.199219 184.648438 C 262.5 186.949219 261.265625 188.679688 259.570312 190.148438 C 258.902344 190.714844 258.4375 191.480469 257.902344 192.179688 C 257.667969 192.546875 257.4375 192.910156 257.171875 193.277344 C 253.304688 197.207031 248.242188 199.707031 242.78125 200.40625 C 231.6875 201.90625 220.761719 201.371094 210.035156 197.976562 C 208.136719 197.375 206.304688 196.542969 204.207031 195.710938 C 204.371094 196.308594 204.472656 196.777344 204.605469 197.207031 C 205.972656 201.839844 207.105469 206.503906 207.46875 211.367188 C 207.902344 217.628906 206.402344 223.292969 203.007812 228.585938 C 201.207031 231.417969 199.476562 234.25 196.976562 236.582031 C 194.378906 239.046875 191.148438 240.347656 187.75 241.046875 C 183.851562 241.878906 180.488281 240.546875 177.855469 237.480469 C 174.992188 234.117188 172.960938 230.253906 171.261719 226.222656 C 167.261719 216.796875 165.230469 206.902344 164.597656 196.707031 C 164.597656 195.941406 164.464844 195.144531 164.367188 194.242188 Z M 141.746094 189.8125 L 141.847656 189.480469 C 142.714844 189.445312 143.578125 189.347656 144.410156 189.179688 C 149.34375 187.949219 154.273438 186.714844 159.167969 185.351562 C 161.132812 184.816406 162.964844 183.882812 164.832031 183.085938 C 165.164062 182.917969 165.429688 182.617188 165.53125 182.25 C 166.230469 179.488281 166.863281 176.722656 167.496094 173.925781 C 167.5625 173.691406 167.5625 173.226562 167.464844 173.191406 C 166.230469 172.589844 165.296875 171.292969 163.699219 171.625 C 160.632812 172.292969 157.570312 172.925781 154.539062 173.691406 C 147.308594 175.523438 140.480469 178.15625 135.117188 183.683594 C 133.6875 185.148438 133.753906 187.414062 135.617188 188.179688 C 137.484375 188.949219 139.714844 189.28125 141.746094 189.8125 Z M 239.25 184.71875 C 238.980469 184.484375 238.714844 184.25 238.449219 184.015625 C 235.316406 181.984375 232.1875 179.988281 229.054688 177.988281 C 221.960938 173.425781 214.367188 170.027344 205.90625 168.992188 C 203.539062 168.695312 201.175781 168.460938 198.808594 168.195312 C 198.777344 168.359375 198.742188 168.527344 198.710938 168.695312 C 210.867188 177.121094 223.660156 183.949219 239.25 184.71875 Z M 195.84375 148.175781 C 196.175781 148.074219 196.511719 147.941406 196.84375 147.808594 C 199.507812 146.144531 202.171875 144.542969 204.804688 142.8125 C 211.265625 138.546875 217.296875 133.75 222.660156 128.15625 C 223.558594 127.253906 224.292969 126.222656 224.859375 125.089844 C 225.589844 123.457031 224.859375 122.589844 223.160156 123.15625 C 220.726562 123.957031 218.195312 124.789062 216.03125 126.121094 C 208.46875 130.6875 202.671875 137.082031 197.976562 144.476562 C 197.277344 145.542969 196.644531 146.742188 195.84375 148.175781 Z M 157.902344 138.582031 L 161.300781 143.410156 C 161.433594 142.910156 161.5 142.546875 161.601562 142.179688 L 161.933594 142.179688 C 161.933594 142.8125 162 143.410156 162.101562 144.042969 C 162.300781 144.675781 162.566406 145.277344 162.933594 145.84375 C 163.566406 146.941406 164.398438 147.773438 165.832031 147.742188 C 166.132812 147.742188 166.429688 148.375 166.730469 148.707031 C 166.964844 148.972656 167.230469 149.242188 167.464844 149.507812 C 165.566406 141.480469 162.265625 134.21875 156.605469 128.054688 L 156.605469 133.351562 L 156.105469 133.816406 C 156.171875 135.75 158.136719 136.882812 157.902344 138.582031 Z M 170.925781 203.335938 L 170.328125 203.371094 C 170.292969 203.703125 170.292969 204.039062 170.328125 204.371094 C 170.460938 205.035156 170.660156 205.667969 170.761719 206.335938 C 171.027344 208 171.160156 209.699219 171.527344 211.332031 C 171.894531 212.898438 172.59375 214.398438 173.027344 215.960938 C 174.425781 221.125 176.222656 226.15625 178.890625 230.851562 C 179.355469 231.6875 180.253906 232.25 180.953125 232.917969 C 178.890625 228.019531 176.492188 223.359375 174.59375 218.527344 C 172.660156 213.632812 171.460938 208.535156 170.925781 203.335938 Z M 190.28125 216.5625 C 190.679688 213.765625 187.617188 200.507812 186.285156 199.105469 C 187.117188 205.136719 187.984375 211.03125 190.28125 216.5625 Z M 194.011719 211.164062 C 194.34375 207.703125 190.214844 193.476562 188.28125 191.144531 Z M 205.105469 205.503906 C 205.136719 202.40625 202.972656 195.34375 201.707031 194.511719 C 202.875 198.273438 203.972656 201.871094 205.105469 205.503906 Z M 144.046875 123.058594 C 141.878906 124.324219 141.214844 126.722656 142.378906 128.488281 C 142.945312 126.6875 143.480469 124.988281 144.046875 123.058594 Z M 193.710938 189.878906 L 193.246094 190.011719 L 196.3125 200.207031 L 196.710938 200.074219 Z M 201.273438 200.539062 C 200.972656 197.941406 200.507812 195.375 199.476562 193.011719 L 199.042969 193.144531 C 199.773438 195.609375 200.542969 198.074219 201.273438 200.539062 Z M 152.941406 124.691406 C 152.171875 125.789062 152.171875 127.722656 152.941406 128.886719 Z M 190.148438 221.359375 L 190.613281 221.125 C 190.082031 220.027344 189.515625 218.925781 188.980469 217.828125 L 188.714844 217.960938 C 189.183594 219.09375 189.683594 220.226562 190.148438 221.359375 Z M 190.148438 221.359375 " fill-opacity="1" fill-rule="nonzero"/></g><g fill="#000000" fill-opacity="1"><g transform="translate(91.664841, 236.596244)"><g><path d="M 0.453125 -36.953125 L 0.453125 -46.203125 L 32.921875 -46.203125 L 32.921875 -36.953125 L 21.953125 -36.953125 L 21.953125 0 L 11.421875 0 L 11.421875 -36.953125 Z M 0.453125 -36.953125 "/></g></g></g><g fill="#000000" fill-opacity="1"><g transform="translate(119.436174, 236.596244)"><g><path d="M 6.0625 -3.40625 C 2.875 -6.25 1.28125 -9.890625 1.28125 -14.328125 C 1.28125 -18.773438 2.941406 -22.425781 6.265625 -25.28125 C 9.585938 -28.132812 13.695312 -29.5625 18.59375 -29.5625 C 23.40625 -29.5625 27.460938 -28.125 30.765625 -25.25 C 34.078125 -22.375 35.734375 -18.734375 35.734375 -14.328125 C 35.734375 -9.929688 34.117188 -6.300781 30.890625 -3.4375 C 27.660156 -0.582031 23.5625 0.84375 18.59375 0.84375 C 13.4375 0.84375 9.257812 -0.570312 6.0625 -3.40625 Z M 13.75 -19.203125 C 12.457031 -17.929688 11.8125 -16.304688 11.8125 -14.328125 C 11.8125 -12.359375 12.425781 -10.742188 13.65625 -9.484375 C 14.894531 -8.234375 16.519531 -7.609375 18.53125 -7.609375 C 20.476562 -7.609375 22.078125 -8.242188 23.328125 -9.515625 C 24.578125 -10.785156 25.203125 -12.394531 25.203125 -14.34375 C 25.203125 -16.3125 24.554688 -17.929688 23.265625 -19.203125 C 21.984375 -20.472656 20.40625 -21.109375 18.53125 -21.109375 C 16.632812 -21.109375 15.039062 -20.472656 13.75 -19.203125 Z M 13.75 -19.203125 "/></g></g></g><g fill="#000000" fill-opacity="1"><g transform="translate(150.847002, 236.596244)"><g><path d="M 5.3125 -3.546875 C 2.625 -6.484375 1.28125 -10.078125 1.28125 -14.328125 C 1.28125 -18.585938 2.625 -22.191406 5.3125 -25.140625 C 8.007812 -28.085938 11.425781 -29.5625 15.5625 -29.5625 C 19.375 -29.5625 22.507812 -28.367188 24.96875 -25.984375 L 24.96875 -48.15625 L 34.890625 -48.15625 L 34.890625 0 L 25.09375 0 L 25.09375 -3.25 L 24.96875 -3.25 C 22.507812 -0.519531 19.375 0.84375 15.5625 0.84375 C 11.425781 0.84375 8.007812 -0.617188 5.3125 -3.546875 Z M 13.75 -19.203125 C 12.457031 -17.929688 11.8125 -16.304688 11.8125 -14.328125 C 11.8125 -12.359375 12.425781 -10.742188 13.65625 -9.484375 C 14.894531 -8.234375 16.519531 -7.609375 18.53125 -7.609375 C 20.476562 -7.609375 22.078125 -8.242188 23.328125 -9.515625 C 24.578125 -10.785156 25.203125 -12.394531 25.203125 -14.34375 C 25.203125 -16.3125 24.554688 -17.929688 23.265625 -19.203125 C 21.984375 -20.472656 20.40625 -21.109375 18.53125 -21.109375 C 16.632812 -21.109375 15.039062 -20.472656 13.75 -19.203125 Z M 13.75 -19.203125 "/></g></g></g><g fill="#000000" fill-opacity="1"><g transform="translate(183.489664, 236.596244)"><g><path d="M 6.0625 -3.40625 C 2.875 -6.25 1.28125 -9.890625 1.28125 -14.328125 C 1.28125 -18.773438 2.941406 -22.425781 6.265625 -25.28125 C 9.585938 -28.132812 13.695312 -29.5625 18.59375 -29.5625 C 23.40625 -29.5625 27.460938 -28.125 30.765625 -25.25 C 34.078125 -22.375 35.734375 -18.734375 35.734375 -14.328125 C 35.734375 -9.929688 34.117188 -6.300781 30.890625 -3.4375 C 27.660156 -0.582031 23.5625 0.84375 18.59375 0.84375 C 13.4375 0.84375 9.257812 -0.570312 6.0625 -3.40625 Z M 13.75 -19.203125 C 12.457031 -17.929688 11.8125 -16.304688 11.8125 -14.328125 C 11.8125 -12.359375 12.425781 -10.742188 13.65625 -9.484375 C 14.894531 -8.234375 16.519531 -7.609375 18.53125 -7.609375 C 20.476562 -7.609375 22.078125 -8.242188 23.328125 -9.515625 C 24.578125 -10.785156 25.203125 -12.394531 25.203125 -14.34375 C 25.203125 -16.3125 24.554688 -17.929688 23.265625 -19.203125 C 21.984375 -20.472656 20.40625 -21.109375 18.53125 -21.109375 C 16.632812 -21.109375 15.039062 -20.472656 13.75 -19.203125 Z M 13.75 -19.203125 "/></g></g></g><g fill="#000000" fill-opacity="1"><g transform="translate(214.90049, 236.596244)"><g><path d="M 6.0625 -3.40625 C 2.875 -6.25 1.28125 -9.890625 1.28125 -14.328125 C 1.28125 -18.773438 2.941406 -22.425781 6.265625 -25.28125 C 9.585938 -28.132812 13.695312 -29.5625 18.59375 -29.5625 C 23.40625 -29.5625 27.460938 -28.125 30.765625 -25.25 C 34.078125 -22.375 35.734375 -18.734375 35.734375 -14.328125 C 35.734375 -9.929688 34.117188 -6.300781 30.890625 -3.4375 C 27.660156 -0.582031 23.5625 0.84375 18.59375 0.84375 C 13.4375 0.84375 9.257812 -0.570312 6.0625 -3.40625 Z M 13.75 -19.203125 C 12.457031 -17.929688 11.8125 -16.304688 11.8125 -14.328125 C 11.8125 -12.359375 12.425781 -10.742188 13.65625 -9.484375 C 14.894531 -8.234375 16.519531 -7.609375 18.53125 -7.609375 C 20.476562 -7.609375 22.078125 -8.242188 23.328125 -9.515625 C 24.578125 -10.785156 25.203125 -12.394531 25.203125 -14.34375 C 25.203125 -16.3125 24.554688 -17.929688 23.265625 -19.203125 C 21.984375 -20.472656 20.40625 -21.109375 18.53125 -21.109375 C 16.632812 -21.109375 15.039062 -20.472656 13.75 -19.203125 Z M 13.75 -19.203125 "/></g></g></g><g fill="#000000" fill-opacity="1"><g transform="translate(246.311316, 236.596244)"><g><path d="M 6.0625 -3.40625 C 2.875 -6.25 1.28125 -9.890625 1.28125 -14.328125 C 1.28125 -18.773438 2.941406 -22.425781 6.265625 -25.28125 C 9.585938 -28.132812 13.695312 -29.5625 18.59375 -29.5625 C 23.40625 -29.5625 27.460938 -28.125 30.765625 -25.25 C 34.078125 -22.375 35.734375 -18.734375 35.734375 -14.328125 C 35.734375 -9.929688 34.117188 -6.300781 30.890625 -3.4375 C 27.660156 -0.582031 23.5625 0.84375 18.59375 0.84375 C 13.4375 0.84375 9.257812 -0.570312 6.0625 -3.40625 Z M 13.75 -19.203125 C 12.457031 -17.929688 11.8125 -16.304688 11.8125 -14.328125 C 11.8125 -12.359375 12.425781 -10.742188 13.65625 -9.484375 C 14.894531 -8.234375 16.519531 -7.609375 18.53125 -7.609375 C 20.476562 -7.609375 22.078125 -8.242188 23.328125 -9.515625 C 24.578125 -10.785156 25.203125 -12.394531 25.203125 -14.34375 C 25.203125 -16.3125 24.554688 -17.929688 23.265625 -19.203125 C 21.984375 -20.472656 20.40625 -21.109375 18.53125 -21.109375 C 16.632812 -21.109375 15.039062 -20.472656 13.75 -19.203125 Z M 13.75 -19.203125 "/></g></g></g><g fill="#000000" fill-opacity="1"><g transform="translate(173.626048, 260.031252)"><g><path d="M 0.421875 0.015625 L 0.40625 -0.625 C 0.507812 -0.832031 0.695312 -0.9375 0.96875 -0.9375 C 0.988281 -0.9375 1.007812 -0.9375 1.03125 -0.9375 C 1.070312 -0.9375 1.113281 -0.929688 1.15625 -0.921875 C 1.332031 -0.921875 1.503906 -0.953125 1.671875 -1.015625 L 1.640625 -0.90625 C 1.734375 -1 1.835938 -1.046875 1.953125 -1.046875 C 2.066406 -1.046875 2.191406 -1 2.328125 -0.90625 C 2.285156 -1.050781 2.238281 -1.15625 2.1875 -1.21875 L 2.53125 -1.109375 C 2.625 -1.109375 2.671875 -1.15625 2.671875 -1.25 L 2.65625 -1.390625 C 2.707031 -1.335938 2.800781 -1.300781 2.9375 -1.28125 C 2.914062 -1.320312 2.90625 -1.398438 2.90625 -1.515625 C 2.90625 -1.578125 2.910156 -1.617188 2.921875 -1.640625 C 2.941406 -1.671875 2.96875 -1.707031 3 -1.75 L 3.046875 -1.90625 C 3.046875 -2.039062 2.976562 -2.175781 2.84375 -2.3125 C 2.84375 -2.46875 2.875 -2.582031 2.9375 -2.65625 L 2.84375 -2.75 L 2.9375 -2.84375 C 2.925781 -2.894531 2.894531 -2.929688 2.84375 -2.953125 L 2.90625 -3.046875 L 2.875 -3.125 C 2.875 -3.144531 2.898438 -3.171875 2.953125 -3.203125 C 3.003906 -3.234375 3.03125 -3.28125 3.03125 -3.34375 C 3.03125 -3.4375 2.96875 -3.554688 2.84375 -3.703125 C 2.851562 -3.722656 2.878906 -3.734375 2.921875 -3.734375 L 3.03125 -3.75 C 3.03125 -3.769531 3.007812 -3.785156 2.96875 -3.796875 C 2.9375 -3.804688 2.921875 -3.828125 2.921875 -3.859375 C 2.921875 -3.890625 2.9375 -3.921875 2.96875 -3.953125 C 3 -3.984375 3.015625 -4.003906 3.015625 -4.015625 C 3.015625 -4.023438 3.007812 -4.03125 3 -4.03125 L 2.859375 -3.96875 C 2.929688 -4.039062 2.96875 -4.109375 2.96875 -4.171875 L 2.9375 -4.25 C 3.019531 -4.414062 3.0625 -4.609375 3.0625 -4.828125 L 2.953125 -5.453125 L 3.125 -5.515625 L 2.953125 -5.5 C 3.035156 -5.582031 3.078125 -5.679688 3.078125 -5.796875 C 3.078125 -5.898438 3.03125 -6.019531 2.9375 -6.15625 C 3.019531 -6.289062 3.0625 -6.457031 3.0625 -6.65625 C 3.03125 -6.65625 3.007812 -6.707031 3 -6.8125 C 2.988281 -6.925781 2.957031 -7.140625 2.90625 -7.453125 C 2.988281 -7.304688 3.050781 -7.234375 3.09375 -7.234375 C 3.125 -7.234375 3.140625 -7.269531 3.140625 -7.34375 C 3.078125 -7.40625 3.046875 -7.492188 3.046875 -7.609375 C 3.046875 -7.691406 3.070312 -7.796875 3.125 -7.921875 L 3.03125 -8.15625 L 2.921875 -7.84375 C 2.796875 -8.070312 2.640625 -8.1875 2.453125 -8.1875 L 2.28125 -8.15625 L 2.359375 -8.28125 L 1.953125 -8.171875 C 1.859375 -8.171875 1.78125 -8.1875 1.71875 -8.21875 L 1.625 -8.15625 C 1.625 -8.25 1.59375 -8.296875 1.53125 -8.296875 C 1.570312 -8.335938 1.59375 -8.378906 1.59375 -8.421875 L 1.53125 -8.59375 C 1.488281 -8.46875 1.429688 -8.40625 1.359375 -8.40625 C 1.285156 -8.40625 1.203125 -8.46875 1.109375 -8.59375 L 1.109375 -8.34375 C 1.054688 -8.457031 1.007812 -8.515625 0.96875 -8.515625 C 0.9375 -8.515625 0.90625 -8.492188 0.875 -8.453125 C 0.6875 -8.597656 0.5625 -8.765625 0.5 -8.953125 C 0.550781 -8.992188 0.585938 -9.039062 0.609375 -9.09375 C 0.640625 -9.144531 0.65625 -9.191406 0.65625 -9.234375 C 0.664062 -9.273438 0.675781 -9.304688 0.6875 -9.328125 C 0.695312 -9.359375 0.710938 -9.375 0.734375 -9.375 C 0.773438 -9.375 0.832031 -9.351562 0.90625 -9.3125 C 0.976562 -9.28125 1.046875 -9.265625 1.109375 -9.265625 C 1.148438 -9.265625 1.191406 -9.273438 1.234375 -9.296875 C 1.285156 -9.316406 1.332031 -9.335938 1.375 -9.359375 C 1.414062 -9.390625 1.453125 -9.414062 1.484375 -9.4375 C 1.523438 -9.457031 1.5625 -9.46875 1.59375 -9.46875 C 1.625 -9.46875 1.648438 -9.457031 1.671875 -9.4375 C 1.691406 -9.414062 1.710938 -9.394531 1.734375 -9.375 C 1.753906 -9.351562 1.769531 -9.332031 1.78125 -9.3125 C 1.800781 -9.300781 1.828125 -9.296875 1.859375 -9.296875 L 2 -9.359375 C 2.019531 -9.359375 2.039062 -9.347656 2.0625 -9.328125 C 2.082031 -9.304688 2.101562 -9.28125 2.125 -9.25 C 2.144531 -9.226562 2.164062 -9.207031 2.1875 -9.1875 C 2.207031 -9.164062 2.226562 -9.15625 2.25 -9.15625 C 2.28125 -9.15625 2.304688 -9.171875 2.328125 -9.203125 C 2.347656 -9.234375 2.367188 -9.265625 2.390625 -9.296875 C 2.421875 -9.335938 2.445312 -9.375 2.46875 -9.40625 C 2.5 -9.4375 2.53125 -9.453125 2.5625 -9.453125 C 2.601562 -9.453125 2.648438 -9.421875 2.703125 -9.359375 C 2.753906 -9.304688 2.800781 -9.28125 2.84375 -9.28125 C 2.914062 -9.28125 2.976562 -9.347656 3.03125 -9.484375 C 3.039062 -9.441406 3.066406 -9.421875 3.109375 -9.421875 C 3.140625 -9.421875 3.191406 -9.441406 3.265625 -9.484375 C 3.367188 -9.390625 3.488281 -9.34375 3.625 -9.34375 C 3.738281 -9.34375 3.867188 -9.378906 4.015625 -9.453125 C 4.140625 -9.390625 4.269531 -9.359375 4.40625 -9.359375 C 4.53125 -9.359375 4.628906 -9.367188 4.703125 -9.390625 C 4.753906 -9.410156 4.785156 -9.421875 4.796875 -9.421875 C 4.796875 -9.359375 4.890625 -9.328125 5.078125 -9.328125 L 5.234375 -9.34375 L 5.296875 -9.296875 C 5.222656 -9.285156 5.1875 -9.265625 5.1875 -9.234375 C 5.1875 -9.203125 5.226562 -9.1875 5.3125 -9.1875 L 5.484375 -9.1875 L 5.34375 -9.390625 C 5.46875 -9.328125 5.601562 -9.296875 5.75 -9.296875 C 5.863281 -9.296875 5.941406 -9.304688 5.984375 -9.328125 L 5.984375 -9.171875 C 6.046875 -9.210938 6.113281 -9.234375 6.1875 -9.234375 C 6.332031 -9.234375 6.453125 -9.109375 6.546875 -8.859375 C 6.410156 -8.847656 6.34375 -8.816406 6.34375 -8.765625 L 6.421875 -8.609375 L 6.359375 -8.484375 C 6.210938 -8.472656 6.140625 -8.445312 6.140625 -8.40625 L 6.171875 -8.296875 L 6.078125 -8.15625 L 5.28125 -8.15625 C 5.144531 -8.1875 5.003906 -8.203125 4.859375 -8.203125 L 4.390625 -8.15625 L 4.484375 -8.0625 C 4.390625 -7.988281 4.34375 -7.914062 4.34375 -7.84375 C 4.34375 -7.757812 4.390625 -7.671875 4.484375 -7.578125 C 4.410156 -7.453125 4.375 -7.367188 4.375 -7.328125 C 4.375 -7.285156 4.390625 -7.257812 4.421875 -7.25 L 4.390625 -6.765625 L 4.296875 -7.09375 L 4.296875 -6.765625 C 4.242188 -6.972656 4.195312 -7.078125 4.15625 -7.078125 C 4.125 -7.078125 4.09375 -7.023438 4.0625 -6.921875 L 4.015625 -6.28125 L 4.234375 -6.28125 L 4.015625 -6.15625 L 4.234375 -6.140625 C 4.054688 -6.054688 3.96875 -5.984375 3.96875 -5.921875 C 3.96875 -5.898438 3.972656 -5.878906 3.984375 -5.859375 C 4.003906 -5.847656 4.023438 -5.832031 4.046875 -5.8125 C 4.078125 -5.789062 4.097656 -5.765625 4.109375 -5.734375 C 4.128906 -5.710938 4.140625 -5.6875 4.140625 -5.65625 C 4.140625 -5.601562 4.125 -5.550781 4.09375 -5.5 C 4.0625 -5.457031 4.046875 -5.378906 4.046875 -5.265625 C 4.046875 -5.140625 4.066406 -4.984375 4.109375 -4.796875 L 4.015625 -4.640625 L 4.109375 -4.640625 L 4.046875 -4.21875 L 4.078125 -3.96875 L 4.046875 -3.78125 L 4.109375 -3.609375 L 4.0625 -3.40625 L 4.109375 -3.21875 L 4.171875 -3.203125 C 4.179688 -3.210938 4.1875 -3.21875 4.1875 -3.21875 C 4.1875 -3.238281 4.160156 -3.273438 4.109375 -3.328125 L 4.28125 -3.265625 L 4.328125 -3.296875 C 4.328125 -3.335938 4.269531 -3.414062 4.15625 -3.53125 L 4.296875 -3.484375 L 4.4375 -3.265625 C 4.40625 -3.179688 4.34375 -3.140625 4.25 -3.140625 L 4.0625 -3.1875 L 4.109375 -2.53125 L 4.015625 -2.578125 L 4.109375 -2.3125 L 4.109375 -2.15625 L 4.25 -2.15625 L 4.15625 -2.234375 L 4.234375 -2.21875 C 4.285156 -2.21875 4.3125 -2.238281 4.3125 -2.28125 C 4.3125 -2.332031 4.257812 -2.410156 4.15625 -2.515625 C 4.28125 -2.523438 4.359375 -2.660156 4.390625 -2.921875 L 4.390625 -1.734375 L 4.484375 -1.65625 L 4.109375 -1.578125 C 4.328125 -1.578125 4.445312 -1.550781 4.46875 -1.5 C 4.46875 -1.457031 4.445312 -1.410156 4.40625 -1.359375 L 4.578125 -1.3125 L 4.578125 -1.015625 L 4.671875 -1.078125 C 4.742188 -0.984375 4.816406 -0.9375 4.890625 -0.9375 L 5.078125 -1 L 5.25 -0.953125 C 5.320312 -0.953125 5.394531 -0.972656 5.46875 -1.015625 L 5.4375 -0.9375 C 5.488281 -0.96875 5.535156 -0.984375 5.578125 -0.984375 C 5.640625 -0.984375 5.707031 -0.957031 5.78125 -0.90625 L 5.75 -1.015625 C 5.9375 -1.003906 6.109375 -0.953125 6.265625 -0.859375 L 6.265625 -0.828125 C 6.265625 -0.796875 6.269531 -0.78125 6.28125 -0.78125 C 6.289062 -0.78125 6.300781 -0.78125 6.3125 -0.78125 C 6.320312 -0.78125 6.335938 -0.78125 6.359375 -0.78125 C 6.316406 -0.707031 6.296875 -0.640625 6.296875 -0.578125 C 6.296875 -0.503906 6.316406 -0.429688 6.359375 -0.359375 L 6.265625 -0.109375 L 6.21875 -0.234375 L 6.09375 -0.109375 L 5.984375 -0.15625 C 5.972656 -0.164062 5.960938 -0.171875 5.953125 -0.171875 C 5.941406 -0.171875 5.9375 -0.171875 5.9375 -0.171875 C 5.9375 -0.171875 5.9375 -0.164062 5.9375 -0.15625 C 5.9375 -0.132812 5.957031 -0.078125 6 0.015625 C 5.882812 -0.0351562 5.78125 -0.0625 5.6875 -0.0625 C 5.601562 -0.0625 5.523438 -0.0351562 5.453125 0.015625 C 5.390625 0.078125 5.332031 0.109375 5.28125 0.109375 L 5.140625 0 C 5.085938 0 5.03125 0.0390625 4.96875 0.125 C 4.800781 0.03125 4.644531 -0.015625 4.5 -0.015625 C 4.363281 -0.015625 4.21875 0.03125 4.0625 0.125 L 3.859375 0.125 C 3.773438 0.0195312 3.695312 -0.03125 3.625 -0.03125 C 3.5625 -0.03125 3.503906 0.0078125 3.453125 0.09375 L 3.09375 0.03125 L 2.5625 0.140625 L 2.453125 -0.234375 L 2.453125 0.171875 C 2.429688 0.128906 2.410156 0.109375 2.390625 0.109375 C 2.378906 0.109375 2.367188 0.109375 2.359375 0.109375 C 2.359375 0.0976562 2.351562 0.09375 2.34375 0.09375 C 2.332031 0.09375 2.316406 0.113281 2.296875 0.15625 L 2.1875 0.140625 L 2.046875 0.0625 C 2.046875 -0.0078125 2.03125 -0.0507812 2 -0.0625 C 1.976562 -0.0625 1.960938 0.00390625 1.953125 0.140625 L 1.671875 0.140625 C 1.640625 0.078125 1.601562 0.046875 1.5625 0.046875 C 1.519531 0.046875 1.472656 0.078125 1.421875 0.140625 C 1.367188 0.046875 1.28125 0 1.15625 0 L 0.671875 0.09375 C 0.578125 0.09375 0.492188 0.0664062 0.421875 0.015625 Z M 4.875 -8.375 C 4.90625 -8.375 4.925781 -8.382812 4.9375 -8.40625 C 4.9375 -8.425781 4.910156 -8.4375 4.859375 -8.4375 L 4.796875 -8.4375 Z M 4.203125 -8.15625 L 4.265625 -7.890625 L 4.28125 -8.15625 Z M 4.109375 -7.1875 C 4.179688 -7.175781 4.238281 -7.171875 4.28125 -7.171875 C 4.289062 -7.171875 4.300781 -7.171875 4.3125 -7.171875 C 4.320312 -7.171875 4.328125 -7.175781 4.328125 -7.1875 C 4.328125 -7.207031 4.289062 -7.242188 4.21875 -7.296875 C 4.300781 -7.398438 4.34375 -7.476562 4.34375 -7.53125 L 4.34375 -7.546875 L 4.171875 -7.453125 L 4.109375 -7.53125 Z M 2.84375 -2.90625 L 2.890625 -2.859375 L 2.84375 -2.8125 Z M 2.890625 -2.15625 C 2.972656 -2.050781 3.015625 -1.96875 3.015625 -1.90625 C 3.003906 -1.832031 2.957031 -1.773438 2.875 -1.734375 Z M 4.09375 -1.796875 L 4.171875 -1.765625 L 4.296875 -1.78125 L 4.15625 -1.890625 L 4.3125 -1.921875 L 4.15625 -1.96875 L 4.296875 -2.015625 L 4.109375 -2.03125 Z M 4.09375 -1.796875 "/></g></g></g><g fill="#000000" fill-opacity="1"><g transform="translate(183.933682, 260.031252)"><g><path d="M 2.65625 -1.375 L 2.375 -1.640625 L 2.65625 -1.828125 L 2.421875 -2.109375 L 2.390625 -2.484375 C 2.390625 -2.796875 2.445312 -3.054688 2.5625 -3.265625 L 2.4375 -3.421875 L 2.59375 -4.0625 C 2.457031 -4.195312 2.390625 -4.320312 2.390625 -4.4375 C 2.390625 -4.5625 2.484375 -4.671875 2.671875 -4.765625 L 2.40625 -5.34375 C 2.5 -5.476562 2.546875 -5.578125 2.546875 -5.640625 C 2.546875 -5.671875 2.535156 -5.695312 2.515625 -5.71875 C 2.492188 -5.738281 2.46875 -5.753906 2.4375 -5.765625 C 2.414062 -5.785156 2.394531 -5.804688 2.375 -5.828125 C 2.351562 -5.847656 2.34375 -5.875 2.34375 -5.90625 L 2.375 -6.015625 L 1.859375 -6.015625 C 1.734375 -6.078125 1.613281 -6.109375 1.5 -6.109375 C 1.320312 -6.109375 1.144531 -6.039062 0.96875 -5.90625 C 0.738281 -6.03125 0.625 -6.15625 0.625 -6.28125 L 0.625 -6.34375 L 0.75 -6.390625 L 0.671875 -6.734375 L 1.046875 -7.015625 L 1.375 -6.875 L 1.703125 -6.890625 C 1.722656 -6.992188 1.804688 -7.046875 1.953125 -7.046875 L 2.4375 -6.921875 C 2.5 -6.921875 2.53125 -6.957031 2.53125 -7.03125 L 2.53125 -7.109375 L 2.703125 -7.171875 L 2.46875 -7.78125 L 2.796875 -7.75 L 2.484375 -8.15625 C 2.554688 -8.289062 2.59375 -8.472656 2.59375 -8.703125 L 2.5 -9.484375 L 2.9375 -9.390625 C 2.957031 -9.628906 3.078125 -9.75 3.296875 -9.75 C 3.410156 -9.75 3.550781 -9.71875 3.71875 -9.65625 L 3.71875 -9.53125 C 3.71875 -9.414062 3.726562 -9.316406 3.75 -9.234375 C 3.769531 -9.160156 3.78125 -9.085938 3.78125 -9.015625 C 3.78125 -8.953125 3.738281 -8.804688 3.65625 -8.578125 L 3.90625 -8.453125 L 3.5 -8.09375 L 3.8125 -7.78125 L 3.5625 -7.765625 L 3.84375 -7.5 C 3.6875 -7.332031 3.609375 -7.222656 3.609375 -7.171875 C 3.609375 -7.140625 3.628906 -7.125 3.671875 -7.125 C 3.742188 -7.125 3.816406 -7.144531 3.890625 -7.1875 L 3.84375 -6.75 L 4.09375 -6.71875 L 4.140625 -6.9375 L 4.46875 -6.8125 C 4.582031 -6.875 4.710938 -6.90625 4.859375 -6.90625 C 4.941406 -6.90625 5.09375 -6.878906 5.3125 -6.828125 C 5.363281 -6.910156 5.4375 -6.953125 5.53125 -6.953125 C 5.632812 -6.953125 5.769531 -6.882812 5.9375 -6.75 L 6.015625 -6.953125 L 6.40625 -6.5 L 6.46875 -6.28125 C 6.363281 -6.269531 6.3125 -6.234375 6.3125 -6.171875 C 6.3125 -6.085938 6.363281 -5.984375 6.46875 -5.859375 L 6.109375 -5.984375 C 5.953125 -5.859375 5.828125 -5.796875 5.734375 -5.796875 C 5.660156 -5.796875 5.609375 -5.84375 5.578125 -5.9375 L 5.390625 -5.8125 C 5.273438 -5.875 5.160156 -5.90625 5.046875 -5.90625 L 4.734375 -5.8125 C 4.609375 -5.90625 4.5 -5.953125 4.40625 -5.953125 C 4.300781 -5.953125 4.191406 -5.90625 4.078125 -5.8125 L 3.828125 -5.90625 C 3.710938 -5.800781 3.65625 -5.703125 3.65625 -5.609375 L 3.703125 -5.46875 L 3.53125 -5.296875 L 3.734375 -5.125 L 3.546875 -4.8125 L 3.703125 -4.625 L 3.5625 -4.34375 C 3.65625 -4.269531 3.703125 -4.195312 3.703125 -4.125 C 3.703125 -4.050781 3.65625 -3.976562 3.5625 -3.90625 L 3.5625 -3.21875 L 3.703125 -3.15625 L 3.703125 -2.625 L 3.5625 -2.65625 L 3.734375 -1.671875 L 3.578125 -1.625 L 3.703125 -1.28125 L 3.734375 -1.28125 C 3.972656 -1.28125 4.09375 -1.234375 4.09375 -1.140625 L 4.0625 -1.03125 L 4.375 -0.9375 L 4.375 -1.109375 L 4.96875 -1.109375 L 5.09375 -0.953125 L 5.375 -1.09375 C 5.46875 -1.414062 5.65625 -1.628906 5.9375 -1.734375 L 5.921875 -2 C 5.972656 -2.101562 6.03125 -2.15625 6.09375 -2.15625 C 6.144531 -2.15625 6.207031 -2.09375 6.28125 -1.96875 L 6.46875 -1.90625 L 6.3125 -1.515625 L 6.609375 -1.421875 L 6.390625 -0.984375 L 6.015625 -0.96875 L 5.875 -0.78125 L 6.328125 -0.890625 C 5.953125 -0.316406 5.410156 -0.03125 4.703125 -0.03125 L 4.609375 -0.03125 C 4.492188 0.0390625 4.375 0.078125 4.25 0.078125 C 4.113281 0.078125 3.984375 0.0351562 3.859375 -0.046875 L 3.703125 -0.015625 C 3.460938 -0.015625 3.226562 -0.203125 3 -0.578125 L 2.859375 -0.5625 C 2.660156 -0.5625 2.546875 -0.722656 2.515625 -1.046875 Z M 2.65625 -1.375 "/></g></g></g><g fill="#000000" fill-opacity="1"><g transform="translate(194.241315, 260.031252)"><g><path d="M 3.453125 -2.6875 L 3.53125 -2.765625 L 3.78125 -2.75 C 4.03125 -2.632812 4.316406 -2.46875 4.640625 -2.25 C 4.828125 -2.03125 4.9375 -1.859375 4.96875 -1.734375 C 5.007812 -1.617188 5.03125 -1.492188 5.03125 -1.359375 C 5.03125 -1.148438 5.003906 -0.957031 4.953125 -0.78125 C 4.910156 -0.601562 4.828125 -0.453125 4.703125 -0.328125 C 4.566406 -0.191406 4.375 -0.0820312 4.125 0 C 3.882812 0.0703125 3.566406 0.117188 3.171875 0.140625 C 2.421875 -0.117188 2.046875 -0.503906 2.046875 -1.015625 C 2.046875 -1.160156 2.070312 -1.253906 2.125 -1.296875 C 2.132812 -1.316406 2.140625 -1.335938 2.140625 -1.359375 C 2.140625 -1.398438 2.113281 -1.4375 2.0625 -1.46875 L 2.125 -1.515625 C 2.101562 -1.566406 2.09375 -1.628906 2.09375 -1.703125 C 2.09375 -1.785156 2.109375 -1.875 2.140625 -1.96875 C 2.410156 -2.25 2.625 -2.390625 2.78125 -2.390625 L 2.8125 -2.328125 L 2.875 -2.46875 L 2.703125 -2.5625 L 2.90625 -2.5 C 2.9375 -2.5 2.957031 -2.523438 2.96875 -2.578125 L 3.0625 -2.515625 C 3.09375 -2.546875 3.109375 -2.578125 3.109375 -2.609375 L 3.109375 -2.625 C 3.109375 -2.632812 3.109375 -2.640625 3.109375 -2.640625 C 3.109375 -2.671875 3.132812 -2.6875 3.1875 -2.6875 L 3.3125 -2.75 C 3.34375 -2.707031 3.378906 -2.6875 3.421875 -2.6875 Z M 3.453125 -2.6875 "/></g></g></g></svg>